<svg width="50" height="50" viewBox="0 0 50 50" fill="none" xmlns="http://www.w3.org/2000/svg">
<g clip-path="url(#clip0)">
<path d="M36.2689 48.334H28.772V38.2945C31.5679 38.0895 34.1844 36.8409 36.1026 34.7962C37.9825 32.83 38.9497 30.1643 38.7679 27.4502C38.7106 26.6302 38.5739 25.5739 38.4283 24.4513C38.1623 22.7048 37.998 20.9444 37.9349 19.1792C38.0691 17.5608 38.3396 15.9566 38.7431 14.3838C38.8053 14.1349 38.7496 13.8709 38.5918 13.6687C38.434 13.4666 38.1916 13.3482 37.9349 13.3482H24.1616L24.354 13.2368L26.5195 11.9873C26.9173 11.7567 27.0531 11.247 26.8229 10.8492C25.1573 7.972 21.9421 6.35848 18.6394 6.74325C18.726 6.45366 18.772 6.15348 18.776 5.85128C18.776 4.01121 17.2845 2.5193 15.4441 2.5193C15.0723 2.52337 14.7034 2.59048 14.3536 2.71738L12.8052 0.391669C12.6445 0.134613 12.3565 -0.0150661 12.0535 0.00120327C11.7505 0.0174727 11.4804 0.19725 11.3487 0.470576C11.2165 0.743902 11.2437 1.06726 11.419 1.31496L12.9687 3.6423C12.2634 4.41754 11.9685 5.48237 12.1747 6.51019C12.3809 7.53801 13.0634 8.40639 14.0132 8.85014C11.1156 11.4862 10.4424 15.7834 12.3956 19.1792C12.5058 19.3704 12.6876 19.5103 12.9012 19.5672C13.1147 19.6246 13.3421 19.5945 13.5332 19.4842L17.7043 17.076C17.8324 17.7467 17.9125 18.4259 17.9431 19.1084C17.9365 19.1316 17.9309 19.1552 17.9264 19.1792C17.93 19.204 17.9353 19.2284 17.9414 19.2524C17.8751 20.9944 17.712 22.7316 17.4525 24.4554C17.3069 25.5739 17.1703 26.6302 17.1125 27.4542C16.9311 30.1684 17.8983 32.8341 19.7782 34.8003C21.696 36.8449 24.3125 38.094 27.1084 38.299V48.334H19.609C19.149 48.334 18.776 48.707 18.776 49.167C18.776 49.627 19.149 50 19.609 50H36.2689C36.7289 50 37.1019 49.627 37.1019 49.167C37.1019 48.707 36.7289 48.334 36.2689 48.334ZM22.5831 12.3355L20.8288 13.3482H17.9431C17.6864 13.3482 17.4444 13.4666 17.2866 13.6687C17.1288 13.8709 17.0726 14.1349 17.1353 14.3838C17.1353 14.3944 17.2341 14.7852 17.3594 15.3506L15.6584 16.3329C15.03 14.455 15.8105 12.3944 17.5253 11.4044C19.2401 10.4144 21.4149 10.7683 22.7271 12.2513L22.5831 12.3355ZM15.4441 4.18529C16.3641 4.18529 17.1101 4.93124 17.1101 5.85128C17.1101 6.77132 16.3641 7.51727 15.4441 7.51727C14.524 7.51727 13.7781 6.77132 13.7781 5.85128C13.7781 4.93124 14.524 4.18529 15.4441 4.18529ZM13.4665 17.5966C12.1629 14.5009 13.3669 10.9184 16.2758 9.23898C19.1848 7.55916 22.8894 8.30715 24.9186 10.9843L24.1848 11.4081C22.3948 9.13079 19.2031 8.5154 16.6948 9.96338C14.186 11.4118 13.1232 14.4838 14.2007 17.1724L13.4665 17.5966ZM21.275 15.0142H36.8855C36.6346 16.1136 36.445 17.226 36.3173 18.3462H19.5606C19.496 17.6657 19.3703 16.8986 19.2344 16.1921L21.275 15.0142ZM18.776 27.5681C18.831 26.7969 18.9652 25.7638 19.1092 24.6693C19.3068 23.144 19.5167 21.4634 19.5834 20.0122H36.299C36.3657 21.4634 36.5756 23.144 36.7729 24.6693C36.9156 25.7638 37.0495 26.7969 37.1064 27.5681C37.2516 29.821 36.4446 32.0312 34.882 33.6606C33.0846 35.5816 30.5714 36.6721 27.9406 36.6721C25.3098 36.6721 22.797 35.5816 20.9993 33.6606C19.4374 32.0312 18.6308 29.821 18.776 27.5681Z" fill="url(#paint0_linear)"/>
<path d="M30.8036 24.0356C30.8504 24.0669 30.9013 24.0921 30.9545 24.1104C31.0042 24.1361 31.0579 24.1527 31.1128 24.1605C31.1652 24.1702 31.2181 24.1759 31.271 24.1771C31.3239 24.1759 31.3767 24.1702 31.4284 24.1605C31.4841 24.1527 31.5378 24.1357 31.5878 24.1104C31.6387 24.0938 31.6867 24.0685 31.7294 24.0356C31.7737 24.0063 31.8156 23.9725 31.8543 23.9355C32.0141 23.7802 32.104 23.567 32.104 23.3441C32.104 23.1213 32.0141 22.9081 31.8543 22.7527C31.8156 22.7157 31.7737 22.682 31.7294 22.6527C31.6867 22.6197 31.6387 22.5945 31.5878 22.5779C31.5378 22.5526 31.4841 22.5356 31.4284 22.5278C31.3247 22.5026 31.2165 22.5026 31.1128 22.5278C31.0579 22.5356 31.0042 22.5522 30.9545 22.5779C30.9013 22.5962 30.8504 22.6214 30.8036 22.6527C30.7605 22.6836 30.719 22.717 30.6796 22.7527C30.3575 23.0814 30.3575 23.6069 30.6796 23.9355L30.8036 24.0356Z" fill="url(#paint1_linear)"/>
<path d="M32.1707 29.4916C32.211 29.5936 32.2704 29.6868 32.3456 29.7665L32.4697 29.8666C32.5165 29.8979 32.5673 29.9231 32.6206 29.9414C32.6678 29.9654 32.7182 29.9825 32.7707 29.9914C32.8256 30.0008 32.8813 30.0065 32.937 30.0081C33.2754 30.0101 33.5817 29.8072 33.7115 29.4944C33.8412 29.182 33.7688 28.8221 33.5284 28.5837C33.3291 28.3873 33.0448 28.3031 32.7707 28.3588C32.7182 28.3677 32.6678 28.3848 32.6206 28.4088C32.5673 28.4271 32.5165 28.4523 32.4697 28.4837C32.4266 28.5146 32.3851 28.5479 32.3456 28.5837C32.2688 28.6618 32.209 28.7558 32.1707 28.8587C32.0821 29.0604 32.0821 29.2898 32.1707 29.4916Z" fill="url(#paint2_linear)"/>
<path d="M24.8487 31.0828C24.5253 31.4086 24.527 31.9349 24.8519 32.2591C25.1769 32.5832 25.7032 32.5832 26.0282 32.2591C26.3536 31.9349 26.3548 31.4086 26.0315 31.0828C25.6975 30.7745 25.1826 30.7745 24.8487 31.0828Z" fill="url(#paint3_linear)"/>
<path d="M26.8562 26.0847C26.82 26.0453 26.7777 26.0115 26.7314 25.9847C26.6887 25.9517 26.6407 25.9265 26.5898 25.9098C26.5398 25.8846 26.4861 25.8675 26.4304 25.8598C26.1587 25.8053 25.8776 25.8895 25.6808 26.0847C25.6071 26.1656 25.5482 26.2588 25.5059 26.3597C25.4636 26.4597 25.4412 26.5675 25.44 26.6761C25.4379 26.8978 25.525 27.1109 25.6816 27.2675C25.8382 27.4245 26.0513 27.5115 26.273 27.5091C26.3258 27.5079 26.3787 27.5022 26.4304 27.4924C26.4861 27.4847 26.5398 27.4676 26.5898 27.4424C26.6407 27.4257 26.6887 27.4005 26.7314 27.3675C26.7757 27.3383 26.8176 27.3045 26.8562 27.2675C27.014 27.1109 27.1035 26.8986 27.106 26.6761C27.1019 26.454 27.0124 26.2425 26.8562 26.0847Z" fill="url(#paint4_linear)"/>
<path d="M23.5326 22.7528C23.1986 22.4445 22.6837 22.4445 22.3498 22.7528C22.2745 22.8326 22.2151 22.9257 22.1749 23.0278C22.1322 23.1278 22.1098 23.2352 22.1082 23.3442C22.1061 23.6826 22.3091 23.9885 22.6219 24.1182C22.9342 24.248 23.2942 24.176 23.5326 23.9356C23.6078 23.8559 23.6672 23.7628 23.7075 23.6607C23.7965 23.4589 23.7965 23.2295 23.7075 23.0278C23.6672 22.9257 23.6078 22.8326 23.5326 22.7528Z" fill="url(#paint5_linear)"/>
</g>
<defs>
<linearGradient id="paint0_linear" x1="25.0345" y1="51.0329" x2="25.0345" y2="-1.58236" gradientUnits="userSpaceOnUse">
<stop stop-color="#E93E3A"/>
<stop offset="0.354" stop-color="#ED683C"/>
<stop offset="0.709" stop-color="#F3903F"/>
<stop offset="1" stop-color="#FDC70C"/>
</linearGradient>
<linearGradient id="paint1_linear" x1="31.2711" y1="51.0329" x2="31.2711" y2="-1.58239" gradientUnits="userSpaceOnUse">
<stop stop-color="#E93E3A"/>
<stop offset="0.354" stop-color="#ED683C"/>
<stop offset="0.709" stop-color="#F3903F"/>
<stop offset="1" stop-color="#FDC70C"/>
</linearGradient>
<linearGradient id="paint2_linear" x1="32.9372" y1="51.033" x2="32.9372" y2="-1.58252" gradientUnits="userSpaceOnUse">
<stop stop-color="#E93E3A"/>
<stop offset="0.354" stop-color="#ED683C"/>
<stop offset="0.709" stop-color="#F3903F"/>
<stop offset="1" stop-color="#FDC70C"/>
</linearGradient>
<linearGradient id="paint3_linear" x1="25.4402" y1="51.033" x2="25.4402" y2="-1.58226" gradientUnits="userSpaceOnUse">
<stop stop-color="#E93E3A"/>
<stop offset="0.354" stop-color="#ED683C"/>
<stop offset="0.709" stop-color="#F3903F"/>
<stop offset="1" stop-color="#FDC70C"/>
</linearGradient>
<linearGradient id="paint4_linear" x1="26.2731" y1="51.0328" x2="26.2731" y2="-1.58231" gradientUnits="userSpaceOnUse">
<stop stop-color="#E93E3A"/>
<stop offset="0.354" stop-color="#ED683C"/>
<stop offset="0.709" stop-color="#F3903F"/>
<stop offset="1" stop-color="#FDC70C"/>
</linearGradient>
<linearGradient id="paint5_linear" x1="22.9413" y1="51.033" x2="22.9413" y2="-1.5823" gradientUnits="userSpaceOnUse">
<stop stop-color="#E93E3A"/>
<stop offset="0.354" stop-color="#ED683C"/>
<stop offset="0.709" stop-color="#F3903F"/>
<stop offset="1" stop-color="#FDC70C"/>
</linearGradient>
<clipPath id="clip0">
<rect width="50" height="50" fill="white"/>
</clipPath>
</defs>
</svg>
